<svg width="20" height="19" viewBox="0 0 20 19" fill="none" xmlns="http://www.w3.org/2000/svg">
<path d="M18.2818 0H1.71824C0.770703 0 0 0.771562 0 1.71953V12.5105C0 13.458 0.770703 14.2287 1.71824 14.2287H6.92633C7.02965 14.2287 7.12512 14.2841 7.17676 14.3734L9.47727 18.3586C9.59008 18.5533 9.77563 18.6603 10 18.6603C10.2244 18.6603 10.4099 18.5532 10.5227 18.3582L12.8232 14.3734C12.8749 14.2841 12.9704 14.2287 13.0737 14.2287H18.2818C19.2293 14.2287 20 13.458 20 12.5105V1.71953C20 0.771562 19.2293 0 18.2818 0ZM13.9841 11.7303H6.01719V10.4137C6.01719 9.32481 6.78375 8.43883 7.72633 8.43883H12.2736C13.2166 8.43883 13.984 9.32481 13.984 10.4137V11.7303H13.9841ZM10 2.49848C11.1794 2.49848 12.1389 3.45801 12.1389 4.63738C12.1389 5.81676 11.1794 6.77633 10 6.77633C8.82063 6.77633 7.86109 5.81676 7.86109 4.63738C7.86109 3.45801 8.82063 2.49848 10 2.49848Z" fill="#C9222F"/>
</svg>
