<svg width="20" height="20" viewBox="0 0 20 20" fill="none" xmlns="http://www.w3.org/2000/svg">
<g clip-path="url(#clip0_contact_support)">
<path d="M19.375 8.4375V11.5625C19.375 12.4243 18.6743 13.125 17.8125 13.125H17.3871C16.7896 16.6663 13.7091 19.375 10 19.375C9.65454 19.375 9.375 19.0955 9.375 18.75C9.375 18.4045 9.65454 18.125 10 18.125C13.446 18.125 16.25 15.321 16.25 11.875V8.125C16.25 4.67896 13.446 1.875 10 1.875C6.55396 1.875 3.75 4.67896 3.75 8.125V12.5C3.75 12.8455 3.47046 13.125 3.125 13.125H2.1875C1.32568 13.125 0.625 12.4243 0.625 11.5625V8.4375C0.625 7.57568 1.32568 6.875 2.1875 6.875H2.61292C3.21045 3.33374 6.29089 0.625 10 0.625C13.7091 0.625 16.7896 3.33374 17.3871 6.875H17.8125C18.6743 6.875 19.375 7.57568 19.375 8.4375ZM10 3.125C7.24304 3.125 5 5.36804 5 8.125V11.25C5 14.007 7.24304 16.25 10 16.25C12.757 16.25 15 14.007 15 11.25V8.125C15 5.36804 12.757 3.125 10 3.125Z" fill="#C9222F"/>
</g>
<defs>
<clipPath id="clip0_contact_support">
<rect width="20" height="20" fill="white"/>
</clipPath>
</defs>
</svg>
