<svg width="20" height="20" viewBox="0 0 20 20" fill="none" xmlns="http://www.w3.org/2000/svg">
<g clip-path="url(#clip0_1_40)">
<path d="M7.48596 7.3999C7.11683 7.3999 6.81647 7.70026 6.81647 8.06939V11.9303C6.85023 12.8174 8.12196 12.8167 8.15541 11.9303V8.06939C8.15541 7.70022 7.85509 7.3999 7.48596 7.3999Z" fill="#C9222F"/>
<path d="M20 9.99996C20 9.39846 19.772 8.84998 19.398 8.43552C18.9561 7.95605 18.7776 7.2905 18.9203 6.65434C19.0374 6.10852 18.9606 5.51937 18.6599 4.99855C18.3591 4.47774 17.8873 4.11666 17.3563 3.94493C16.7339 3.75054 16.2465 3.26309 16.052 2.64088C15.8805 2.10971 15.5194 1.63793 14.9985 1.33718C14.4776 1.03639 13.8885 0.95973 13.3427 1.0764C12.7066 1.21945 12.0408 1.04108 11.5612 0.599274C10.7258 -0.196073 9.26832 -0.195526 8.43273 0.598961C7.95329 1.04108 7.28751 1.21945 6.65135 1.07676C6.10565 0.95973 5.51653 1.03639 4.99564 1.33718C4.47475 1.63793 4.11363 2.10971 3.94186 2.64088C3.74762 3.26309 3.26029 3.75054 2.63796 3.94493C2.10683 4.11666 1.63506 4.47774 1.33431 4.99855C1.03359 5.51937 0.956737 6.10856 1.07349 6.65434C1.21646 7.29054 1.03817 7.9564 0.596437 8.43587C-0.199066 9.27143 -0.19848 10.7287 0.596203 11.5644C1.03809 12.0436 1.21658 12.7095 1.07384 13.3456C0.956737 13.8914 1.03359 14.4806 1.33431 15.0014C1.63506 15.5222 2.10683 15.8833 2.63785 16.0551C3.26025 16.2495 3.7477 16.7366 3.94221 17.3591C4.11363 17.8902 4.47475 18.3621 4.99564 18.6628C5.51653 18.9636 6.10565 19.0403 6.65143 18.9236C7.28759 18.7805 7.95337 18.9589 8.43296 19.4007C9.2684 20.196 10.726 20.1957 11.5614 19.4007C12.0409 18.9589 12.7067 18.7805 13.3428 18.9232C13.8885 19.0403 14.4776 18.9636 14.9985 18.6628C15.5194 18.3621 15.8805 17.8902 16.0523 17.3591C16.2465 16.7366 16.7339 16.2495 17.3562 16.0548C17.8873 15.8834 18.3591 15.5223 18.6599 15.0014C18.9606 14.4806 19.0374 13.8915 18.9207 13.3457C18.7777 12.7095 18.956 12.0436 19.3977 11.5641C19.772 11.1499 20 10.6015 20 9.99996ZM9.32759 11.9304C9.23472 14.3709 5.73624 14.369 5.64423 11.9304V8.06952C5.73714 5.62901 9.23558 5.63085 9.32759 8.06952V11.9304ZM10.3526 6.86101C10.3815 6.08418 11.4963 6.08477 11.5248 6.86101V7.4888C11.496 8.26563 10.3812 8.26504 10.3526 7.4888V6.86101ZM14.036 13.1389C14.0072 13.9157 12.8923 13.9151 12.8638 13.1389V12.5111C12.8926 11.7343 14.0074 11.7349 14.036 12.5111V13.1389ZM13.9941 7.07869L11.4829 13.3566C11.3627 13.6571 11.0216 13.8032 10.721 13.6831C10.4205 13.5628 10.2743 13.2218 10.3945 12.9212L12.9057 6.64333C13.0259 6.34281 13.367 6.19663 13.6676 6.31682C13.9681 6.43705 14.1143 6.77813 13.9941 7.07869Z" fill="#C9222F"/>
</g>
<defs>
<clipPath id="clip0_1_40">
<rect width="20" height="20" fill="white"/>
</clipPath>
</defs>
</svg>
