<svg width="20" height="20" viewBox="0 0 20 20" fill="none" xmlns="http://www.w3.org/2000/svg">
<path d="M2.89434 17.2241H10.3732C10.4635 16.6048 11.0011 16.1274 11.6462 16.1274H12.459C12.3214 15.9941 12.1881 15.8565 12.072 15.706H2.89434C2.718 15.706 2.57179 15.5597 2.57179 15.3834C2.57179 15.2028 2.718 15.0609 2.89434 15.0609H11.6247C11.3623 14.5964 11.1731 14.0846 11.0828 13.5384H2.89434C2.718 13.5384 2.57179 13.3922 2.57179 13.2159C2.57179 13.0396 2.718 12.8933 2.89434 12.8933H11.0183V12.7729C11.0183 10.9537 12.0676 9.37538 13.5944 8.61418V3.90495C13.5944 3.19102 13.0138 2.61475 12.3042 2.61475H11.2161V3.38025C11.2161 3.97375 10.7301 4.45972 10.1367 4.45972H3.4577C2.86421 4.45972 2.38253 3.97375 2.38253 3.38025V2.61475H1.2902C0.58058 2.61475 0 3.19102 0 3.90495V18.7078C-4.16627e-08 19.4175 0.58058 19.998 1.2902 19.998H10.528C10.4205 19.8088 10.356 19.5852 10.356 19.3529V17.8692H2.89434C2.718 17.8692 2.57179 17.723 2.57179 17.5467C2.57179 17.3703 2.718 17.2241 2.89434 17.2241ZM4.81026 7.62501H6.02524V6.41008C6.02524 6.226 6.17447 6.07678 6.35854 6.07678H7.23586C7.41994 6.07678 7.56917 6.226 7.56917 6.41008V7.62501H8.78409C8.96817 7.62501 9.1174 7.77423 9.1174 7.95831V8.83566C9.1174 9.01974 8.96817 9.16896 8.78409 9.16896H7.56917V10.3796C7.56917 10.5637 7.41994 10.7129 7.23586 10.7129H6.35854C6.17447 10.7129 6.02524 10.5637 6.02524 10.3796V9.16896H4.81026C4.62618 9.16896 4.47696 9.01974 4.47696 8.83566V7.95831C4.47696 7.77423 4.62618 7.62501 4.81026 7.62501Z" fill="#C9222F"/>
<path d="M3.45741 3.81469H10.1364C10.3772 3.81469 10.5707 3.61688 10.5707 3.38032V1.83209C10.5707 1.59556 10.3772 1.39772 10.1364 1.39772H8.20106C8.20106 0.627907 7.56888 0 6.79904 0C6.02495 0 5.39702 0.627907 5.39702 1.39772H3.45741C3.2166 1.39772 3.02734 1.59556 3.02734 1.83209V3.38032C3.02734 3.61688 3.2166 3.81469 3.45741 3.81469ZM6.57114 0.97626C6.69152 0.855829 6.90656 0.855829 7.02699 0.97626C7.13352 1.06764 7.17099 1.27783 7.02699 1.43213C6.91543 1.54378 6.70436 1.56546 6.57114 1.43213C6.43709 1.29819 6.45311 1.08576 6.57114 0.97626Z" fill="#C9222F"/>
<path d="M19.6621 12.7716C19.6621 10.566 17.8676 8.77148 15.662 8.77148C13.4564 8.77148 11.6619 10.566 11.6619 12.7716C11.6619 14.9772 13.4564 16.7717 15.662 16.7717C17.8676 16.7717 19.6621 14.9772 19.6621 12.7716ZM15.6608 12.4486C16.4153 12.4486 17.0272 13.0013 17.0272 13.6804C17.0272 14.2607 16.5805 14.7454 15.9831 14.8764V15.0588C15.9831 15.2369 15.8386 15.3813 15.6605 15.3813C15.4825 15.3813 15.338 15.2369 15.338 15.0588V14.8751C14.7419 14.7424 14.2968 14.2591 14.2968 13.6804C14.2968 13.5023 14.4413 13.3579 14.6194 13.3579C14.7975 13.3579 14.9419 13.5023 14.9419 13.6804C14.9419 14.0051 15.2655 14.2692 15.6633 14.2692C16.0595 14.2692 16.3821 14.0051 16.3821 13.6804C16.3821 13.357 16.0595 13.0937 15.6633 13.0937C14.9088 13.0937 14.2968 12.5414 14.2968 11.8623C14.2968 11.283 14.742 10.7991 15.338 10.667V10.4847C15.338 10.3066 15.4825 10.1622 15.6605 10.1622C15.8386 10.1622 15.9831 10.3066 15.9831 10.4847V10.6668C16.5807 10.7984 17.0272 11.2826 17.0272 11.8623C17.0272 12.0404 16.8827 12.1848 16.7046 12.1848C16.5266 12.1848 16.3821 12.0404 16.3821 11.8623C16.3821 11.538 16.0592 11.2741 15.6621 11.2736C15.6615 11.2736 15.6611 11.2739 15.6605 11.2739C15.66 11.2739 15.6596 11.2736 15.6591 11.2736C15.2637 11.2743 14.9419 11.5381 14.9419 11.8623C14.9419 12.1857 15.2645 12.4486 15.6608 12.4486Z" fill="#C9222F"/>
<path d="M13.5273 16.7715H15.1776V19.997H13.5273V16.7715Z" fill="#C9222F"/>
<path d="M15.8242 16.7715H17.4741V19.997H15.8242V16.7715Z" fill="#C9222F"/>
<path d="M19.3557 16.7715H18.1191V19.997H19.3557C19.7119 19.997 20.0008 19.7082 20.0008 19.3519V17.4166C20.0008 17.0603 19.7119 16.7715 19.3557 16.7715Z" fill="#C9222F"/>
<path d="M11.002 17.4166V19.3519C11.002 19.7082 11.2908 19.997 11.6471 19.997H12.8834V16.7715H11.6471C11.2908 16.7715 11.002 17.0603 11.002 17.4166Z" fill="#C9222F"/>
</svg>
