<svg width="87" height="87" viewBox="0 0 87 87" fill="none" xmlns="http://www.w3.org/2000/svg">
<path fill-rule="evenodd" clip-rule="evenodd" d="M43.5 82.6501C65.1219 82.6501 82.6501 65.1224 82.6501 43.5C82.6501 21.8781 65.1224 4.34991 43.5 4.34991C21.8781 4.34991 4.34991 21.8781 4.34991 43.5C4.34991 65.1219 21.8781 82.6501 43.5 82.6501ZM43.5 87C67.5241 87 87 67.5241 87 43.5C87 19.4754 67.5241 0 43.5 0C19.4754 0 0 19.4754 0 43.5C0 67.5241 19.4754 87 43.5 87Z" fill="#FAFAFA"/>
<path fill-rule="evenodd" clip-rule="evenodd" d="M54.8034 43.5L34.7996 30.1643V56.8362L54.8034 43.5ZM58.8448 40.9665C60.653 42.172 60.653 44.8285 58.8448 46.0339L35.1833 61.8085C33.1599 63.1577 30.4492 61.7066 30.4492 59.2746V27.7258C30.4492 25.2938 33.1599 23.8432 35.1833 25.1924L58.8448 40.9665Z" fill="#FAFAFA"/>
</svg>
